<?xml version="1.0" standalone="no"?>
<!DOCTYPE svg PUBLIC "-//W3C//DTD SVG 20010904//EN"
 "http://www.w3.org/TR/2001/REC-SVG-20010904/DTD/svg10.dtd">
<svg version="1.0" xmlns="http://www.w3.org/2000/svg"
 width="512.000000pt" height="512.000000pt" viewBox="0 0 512.000000 512.000000"
 preserveAspectRatio="xMidYMid meet">
<metadata>
Created by potrace 1.11, written by Peter Selinger 2001-2013
</metadata>
<g transform="translate(0.000000,512.000000) scale(0.100000,-0.100000)"
fill="#000000" stroke="none">
<path d="M2197 5103 c-19 -22 -22 -61 -8 -111 32 -109 34 -364 6 -547 -9 -57
-44 -184 -61 -222 -8 -17 -14 -35 -14 -41 0 -16 -76 -153 -86 -155 -5 -1 -12
18 -16 43 -13 78 -51 260 -54 257 -2 -1 -6 -18 -9 -37 -15 -95 -22 -108 -30
-58 -4 19 -12 57 -28 124 -6 26 -31 44 -62 44 -38 0 -48 -18 -65 -120 -14 -81
-40 -167 -74 -244 -27 -61 -115 -198 -161 -251 -14 -16 -37 -43 -52 -60 -14
-16 -53 -61 -86 -98 -258 -290 -405 -554 -434 -778 -9 -73 -9 -310 0 -384 37
-283 151 -542 322 -723 103 -111 296 -229 416 -257 168 -38 205 -41 534 -51
417 -13 793 -8 960 12 28 3 98 16 157 29 95 21 141 37 298 107 201 90 405 353
495 638 75 241 69 519 -15 691 -35 72 -126 183 -145 175 -7 -2 -25 8 -40 22
-58 55 -75 62 -111 47 l-31 -13 -7 87 c-13 153 -66 345 -142 506 -21 44 -38
82 -39 85 -2 12 -92 160 -133 220 -159 232 -382 461 -687 708 -129 104 -514
360 -554 368 -18 4 -32 0 -44 -13z"/>
<path d="M1020 1525 c-103 -21 -188 -89 -236 -190 -14 -29 -19 -62 -19 -120 0
-67 5 -89 28 -137 30 -60 79 -116 137 -154 37 -24 74 -38 340 -129 237 -81
254 -87 238 -96 -7 -4 -55 -21 -107 -39 -69 -24 -105 -42 -135 -70 -23 -21
-51 -47 -63 -57 -22 -20 -175 -157 -203 -183 -9 -8 -41 -37 -71 -64 -179 -162
-186 -173 -151 -214 14 -17 33 -22 107 -27 144 -10 206 -14 275 -20 395 -30
348 -36 670 76 457 160 481 168 605 211 l119 40 91 -30 c49 -17 209 -72 355
-122 620 -215 566 -199 655 -195 74 3 108 6 295 20 36 3 94 7 130 10 36 2 101
7 145 10 90 7 125 24 125 59 0 26 -16 45 -135 151 -43 39 -83 75 -89 80 -6 6
-56 50 -111 100 -55 49 -119 107 -142 128 -23 22 -52 47 -64 55 -18 12 -201
81 -219 82 -21 2 94 43 475 172 75 25 100 38 150 78 109 86 158 229 122 351
-43 142 -170 231 -332 231 -60 1 -95 -8 -245 -60 -96 -33 -276 -95 -400 -137
-124 -42 -234 -80 -245 -85 -11 -5 -76 -27 -145 -51 -69 -23 -190 -64 -270
-91 -122 -42 -149 -48 -175 -40 -16 6 -97 33 -180 62 -82 29 -233 81 -335 115
-102 35 -311 107 -465 160 -409 141 -416 143 -525 120z"/>
</g>
</svg>
